<?xml version="1.0" standalone="no"?>
<!DOCTYPE svg PUBLIC "-//W3C//DTD SVG 20010904//EN"
 "http://www.w3.org/TR/2001/REC-SVG-20010904/DTD/svg10.dtd">
<svg version="1.0" xmlns="http://www.w3.org/2000/svg"
 width="315.000000pt" height="315.000000pt" viewBox="0 0 315.000000 315.000000"
 preserveAspectRatio="xMidYMid meet">
<metadata>
Created by potrace 1.14, written by Peter Selinger 2001-2017
</metadata>
<g transform="translate(0.000000,315.000000) scale(0.100000,-0.100000)"
fill="#000000" stroke="none">
<path d="M1438 3075 c-2 -1 -32 -6 -68 -9 -36 -4 -94 -13 -130 -21 -36 -8 -76
-17 -90 -21 -128 -28 -355 -134 -488 -227 -94 -67 -257 -224 -325 -315 -26
-34 -47 -64 -47 -67 0 -2 -16 -30 -36 -61 -20 -31 -52 -91 -71 -133 -36 -79
-95 -241 -88 -241 3 0 0 -12 -6 -27 -6 -15 -12 -46 -15 -68 -3 -22 -7 -47 -10
-54 -17 -52 -24 -316 -10 -426 15 -125 46 -267 71 -322 8 -17 15 -36 15 -43 0
-6 26 -64 57 -128 62 -128 69 -152 42 -145 -9 3 -29 -3 -43 -12 -34 -23 -48
-9 -17 16 13 10 19 19 14 19 -16 0 -45 -38 -38 -50 11 -18 -47 -71 -70 -64
-20 6 -20 6 -1 -9 17 -13 18 -16 5 -29 -8 -8 -20 -13 -27 -10 -7 2 -11 -2 -10
-9 2 -7 -4 -13 -12 -14 -8 0 -15 -4 -15 -10 0 -5 -4 -15 -8 -21 -4 -7 0 -11
11 -10 10 0 16 -5 14 -13 -3 -12 -1 -12 15 0 17 13 17 13 0 -13 -13 -21 -14
-29 -4 -34 6 -4 9 -4 5 1 -9 9 20 40 29 31 4 -3 1 -12 -5 -18 -19 -19 -14 -33
6 -16 26 23 75 46 108 51 16 2 44 18 64 35 19 18 46 42 60 53 18 15 20 19 6
15 -14 -5 -17 -2 -12 10 4 12 2 15 -9 10 -16 -6 -21 9 -5 19 5 3 26 -13 47
-36 200 -223 362 -349 561 -437 67 -30 204 -79 242 -87 8 -2 47 -10 86 -19 39
-8 95 -18 125 -22 70 -10 360 -10 424 -1 69 10 109 18 206 41 158 38 403 153
523 246 65 51 181 159 221 205 69 81 108 122 100 108 -3 -8 0 -13 8 -13 8 0
18 -7 21 -16 4 -9 9 -14 13 -11 3 4 12 -1 20 -11 9 -10 11 -11 7 -2 -4 8 7 0
25 -18 18 -17 37 -30 42 -26 5 3 9 0 9 -5 0 -6 6 -11 13 -11 7 0 18 -9 25 -20
7 -11 18 -20 26 -20 8 0 17 -7 20 -16 4 -9 9 -14 12 -11 3 2 16 -6 29 -19 27
-27 56 -34 35 -9 -7 8 -17 12 -23 8 -5 -3 -7 -1 -4 4 8 13 -18 37 -31 29 -5
-3 -9 1 -9 9 0 15 9 11 55 -21 21 -16 22 -16 22 9 0 18 -4 25 -13 21 -18 -6
-41 21 -34 40 3 8 -3 22 -15 32 -18 17 -21 17 -32 2 -11 -14 -14 -14 -35 3
-13 11 -18 19 -13 19 6 0 14 -4 17 -10 10 -15 24 -12 21 5 -3 21 -73 68 -88
59 -6 -4 -8 -3 -4 4 8 13 -33 44 -47 35 -6 -3 -7 -1 -3 5 3 6 -2 15 -11 21
-17 9 -16 12 5 48 64 106 148 312 167 408 39 200 50 377 32 535 -6 60 -9 78
-21 143 -36 191 -138 418 -269 596 -42 57 -253 271 -267 271 -4 0 -23 13 -41
30 -19 16 -39 30 -46 30 -6 0 -13 3 -15 8 -5 11 -54 39 -163 92 -148 72 -274
112 -425 136 -19 3 -46 8 -60 10 -27 6 -346 14 -352 9z m1463 -2362 c13 -17
13 -17 -6 -3 -11 8 -22 16 -24 17 -2 2 0 3 6 3 6 0 17 -8 24 -17z m39 -23 c0
-5 -2 -10 -4 -10 -3 0 -8 5 -11 10 -3 6 -1 10 4 10 6 0 11 -4 11 -10z m46 -37
c-6 -6 -36 9 -36 18 0 5 9 4 20 -3 10 -7 18 -14 16 -15z m98 -58 c-4 -8 -11
-12 -16 -9 -6 4 -5 10 3 15 19 12 19 11 13 -6z m-2974 1 c0 -3 -4 -8 -10 -11
-5 -3 -10 -1 -10 4 0 6 5 11 10 11 6 0 10 -2 10 -4z m2950 -35 c0 -4 -6 -8
-13 -8 -8 0 -14 6 -14 13 0 7 6 10 14 7 7 -3 13 -8 13 -12z"/>
<path d="M70 649 c0 -5 5 -7 10 -4 6 3 10 8 10 11 0 2 -4 4 -10 4 -5 0 -10 -5
-10 -11z"/>
<path d="M3117 583 c-13 -12 -7 -22 12 -20 15 1 17 4 9 14 -12 15 -13 15 -21
6z"/>
</g>
</svg>
